<?xml version="1.0" standalone="no"?>
<!DOCTYPE svg PUBLIC "-//W3C//DTD SVG 20010904//EN"
 "http://www.w3.org/TR/2001/REC-SVG-20010904/DTD/svg10.dtd">
<svg version="1.0" xmlns="http://www.w3.org/2000/svg"
 width="1024.000000pt" height="1024.000000pt" viewBox="0 0 1024.000000 1024.000000"
 preserveAspectRatio="xMidYMid meet">

<g transform="translate(0.000000,1024.000000) scale(0.100000,-0.100000)"
fill="#000000" stroke="none">
<path d="M4287 7998 c-19 -35 -95 -180 -169 -323 -143 -274 -317 -609 -423
-810 -34 -66 -121 -232 -193 -370 -71 -137 -240 -462 -376 -722 -312 -599
-751 -1456 -1003 -1958 -107 -214 -199 -394 -203 -400 -11 -15 -750 -1491
-750 -1498 0 -4 474 -7 1053 -7 l1052 0 220 498 220 497 1175 2 1175 3 250
-499 250 -500 888 0 887 -1 -15 37 c-8 20 -37 77 -64 127 -43 81 -276 535
-947 1851 -109 215 -200 396 -202 402 -3 10 94 13 443 15 l447 3 19 35 c26 46
298 606 393 807 40 87 126 265 189 396 l116 237 -1182 0 -1182 0 -153 305
c-83 168 -152 307 -152 310 0 3 665 5 1478 5 l1479 0 11 23 c5 12 67 141 137
287 70 146 176 371 237 500 61 129 171 362 244 517 74 155 134 284 134 288 0
3 -1226 5 -2725 5 l-2724 0 -34 -62z m5193 -102 c0 -7 -105 -225 -271 -566
-90 -184 -198 -406 -239 -492 l-75 -157 -1622 -1 c-893 0 -1623 -2 -1623 -4 0
-3 119 -244 265 -535 l265 -531 1085 0 c597 0 1085 -3 1085 -8 0 -4 -52 -118
-117 -252 -64 -135 -176 -371 -248 -525 l-133 -280 -566 -3 c-311 -1 -566 -4
-566 -7 0 -3 272 -550 605 -1215 l605 -1210 -579 0 -579 0 -427 843 c-235 463
-522 1029 -638 1257 -115 228 -322 633 -460 900 -137 267 -297 577 -355 690
-58 113 -108 208 -111 212 -4 4 -96 -198 -205 -450 -109 -251 -278 -637 -374
-857 -96 -220 -176 -406 -179 -412 -4 -10 94 -13 470 -13 368 0 477 -3 485
-12 12 -16 518 -1051 527 -1078 6 -20 -6 -20 -993 -20 l-999 0 -90 -207 c-49
-115 -152 -353 -228 -531 l-138 -322 -603 0 c-332 0 -604 2 -604 5 0 4 118
267 385 860 35 77 119 266 188 420 68 154 185 415 260 580 74 165 251 559 392
875 688 1539 813 1813 1343 2953 l45 97 2509 0 c1379 0 2508 -2 2508 -4z
m-4475 -2972 c113 -230 205 -419 205 -420 0 -2 -173 -4 -385 -4 -212 0 -385 2
-385 4 0 3 53 130 119 283 65 153 144 340 176 416 32 75 59 137 62 137 2 0 96
-187 208 -416z"/>
</g>
</svg>
